<svg xmlns="http://www.w3.org/2000/svg" width="400" height="400"><path fill-rule="evenodd" d="M193.7 16.74c-5.3 1.73-10.28 4.57-9.7 5.53.19.29.86.32 1.5.08.78-.3 1-.17.65.39-.64 1.02-3.76 1.1-4.37.1-.25-.4-.83-.48-1.3-.19-.46.3-1.8.6-2.98.7-7.33.6-8.92.84-12.14 1.82-1.97.6-5.82 1.92-8.57 2.95-2.75 1.04-5.72 1.88-6.6 1.88-.88 0-4.66 1.6-8.4 3.57-8.27 4.34-8.78 4.13-1.1-.47 3.12-1.87 5.54-3.54 5.37-3.7-.74-.74-11.18 6.33-17.08 11.56-10.72 9.52-17.9 16.49-17.92 17.4 0 .47-3.14 5-6.96 10.1-7.83 10.4-12.25 18.74-8.92 16.83.52-.3.64-.25.3.13a2.1 2.1 0 0 1-1.33.65c-3.16 0-19.39 38.38-18.03 42.65.34 1.07.22 1.3-.44.9s-.8-.14-.5.98c.24.95.12 1.37-.32 1.1-.47-.3-.56.4-.25 1.96.37 1.88.3 2.18-.33 1.34-.64-.84-.73-.44-.42 1.79.3 2.18.23 2.52-.32 1.42-.54-1.08-.63-.66-.37 1.79.19 1.77.1 2.63-.2 1.92-.61-1.52-1.15 10.81-1.17 26.65 0 11.89 1.61 26.77 2.56 23.57.36-1.19.47-.54.33 1.94-.1 2.05.07 3.82.4 3.93 2.85.98 2.27 17.8-1.2 34.89-.98 4.83-1.66 9.12-1.5 9.55.15.42.52-.77.81-2.64.3-1.87.87-3.6 1.27-3.85.48-.3.56.25.21 1.61-1.87 7.43-1.97 16.1-.18 17.2.47.3.56-.02.23-.86-.54-1.42 1.28-19.33 2.68-26.35.76-3.79 1.03-4.23 2.66-4.3 2.28-.1 2.7 3.33 1.02 8.11-1.89 5.35-1.05 41.34 1.12 48.35.38 1.22.81 2.82.97 3.57 1.24 6.1 4.1 15.45 6.5 21.3 1.13 2.75-5.6-1.81-6.98-4.73a11.19 11.19 0 0 0-2.84-3.73c-.88-.62-1.42-1.13-1.19-1.13.23 0-.17-2.15-.9-4.79a63.48 63.48 0 0 1-1.74-9.46c-.45-5.21-.97-8.2-1.35-7.8-.32.32.73 10.89 1.37 13.84.41 1.89.37 1.97-.4.75-.48-.77-1-2.5-1.15-3.85a13.06 13.06 0 0 0-1.1-3.97c-.46-.85-1.02-6.66-1.27-13.3l-.46-11.78-.12 10.4c-.09 7.54.18 11.42.97 14.07.6 2.01 1 3.92.89 4.25-.34 1.02 7.24 17.64 8.91 19.53.89 1 1.32 1.4.97.88-1.38-2.04.25-1.6 1.8.48 1.03 1.4 2.03 2.06 2.72 1.8.59-.23.85-.18.57.1-.83.83.95 2.42 2.72 2.42 1.2 0 2.6 1.3 5.23 4.93 3.73 5.14 7.05 8.1 10.1 9.01.98.3 2.7 1.3 3.8 2.23 1.11.93 2.56 1.7 3.22 1.7.66.01 5.37 1.48 10.48 3.27 11.33 3.96 12.93 4.37 9.43 2.44-4.57-2.53-8.1-6.89-12.37-15.23l-4.07-8 5.22 5.58c2.87 3.07 6.46 6.21 7.97 6.98 1.51.77 2.75 1.72 2.75 2.1 0 .4.29.7.65.7 1 0 .53-1.51-1.47-4.64-3.53-5.54-9.04-22.5-9.23-28.48-.05-1.48-.07-1.48-.67-.09-.45 1.07-.66.43-.8-2.5l-.3-6.23c-.06-1.26.11-2.15.4-1.98.28.18.36 1.13.17 2.12-.2 1-.02 1.8.38 1.8s1.69 1.7 2.85 3.76a32.74 32.74 0 0 0 4.18 5.8c1.13 1.12 2.07 2.4 2.09 2.85.15 3.26 13.84 11.88 18.86 11.88h2.35l-2.86-3.11c-4.9-5.31-6.2-12.13-3.52-18.5 1.35-3.2 1.94-3.31 3.51-.71 1.22 2.01 3.26 4.49 7.06 8.56 2.34 2.5 10.72 6.85 12.5 6.49.69-.14-.33-1.18-2.7-2.73-2.65-1.73-3.88-3.04-4.05-4.28-.22-1.68-.04-1.6 2.86 1.16 3.67 3.5 6.46 5.15 6.27 3.7-.47-3.46.04-4.91 1.47-4.15.78.42 1.43.53 1.43.24 0-.29.38-.14.85.33.47.47 1.58.86 2.46.86 2.24 0 2.57.91 1.47 4.1l-.95 2.76 2.02-.3c2.2-.32 5.37-3.62 6.44-6.69 1.08-3.09 2.78-2.78 5.38 1 2.48 3.6 2.87 5.19 1.43 5.85-.49.22.11.23 1.34.02 2.77-.48 2.98 0 2.98 6.8 0 7.37-5.43 16.52-8.62 14.55-.4-.25-.56-.16-.34.2.22.35-.2 1.9-.96 3.45-1.61 3.32-1.72 4.16-.26 2.19.57-.79 3.21-3.6 5.87-6.27l4.81-4.83v-8.38c0-4.6-.22-10.3-.48-12.67-.3-2.56-.26-3.42.1-2.14.4 1.49.6 1.7.67.72.08-1.2.2-1.25.79-.36.6.92.69.9.7-.13 0-.65 1.13-2.66 2.5-4.46 2.61-3.42 2.65-3.78.25-2.5-2.17 1.17-1.06-2.06 1.43-4.16 2.35-1.98 1.64-2.05-2-.19-1.54.78-5.38 2.36-8.54 3.52-8.9 3.25-10.17 3.19-14.61-.72-3.1-2.74-18.94-12.32-28.65-17.34-9.68-5.01-15.04-11.84-20.62-26.27-3.44-8.9-5.38-13.07-5.87-12.58-.17.17.5 1.88 1.48 3.82 3.12 6.16 1.87 6.52-4.05 1.17-4.08-3.68-6.45-8.75-6.88-14.73-.42-5.83.24-5.83 3.52-.02 1.2 2.13 2.3 3.87 2.42 3.87.43 0-5.12-12.47-6.68-15-1.52-2.47-2.05-5.05-1.01-4.94.3.03 1.66.46 3.03.97l2.5.9-2.32.53c-3.31.74-2.86 1.83.75 1.83 1.7 0 3.42.35 3.85.78.56.56.91.55 1.26 0 .27-.44-.02-.98-.63-1.22-.61-.23-.94-.7-.73-1.05.22-.34.05-1.25-.36-2.02-1.14-2.13 3.54-9.54 7.31-11.59 1.1-.6 1.22-.45.84 1.04-.5 2 .79 9.74 1.78 10.74.42.42.53.12.3-.78-.52-1.97.85-2.67 2.01-1.02.66.92 1.75 1.3 3.57 1.24 1.45-.06 2.62.07 2.6.28-.15 2.22 1.05 3.4 2.33 2.32 1-.86 1.12-1.3.47-1.71-.62-.4-.5-.56.37-.57.68 0 1.25.5 1.25 1.14 0 .7.4 1 1 .76.57-.22 1.21.1 1.44.7.44 1.13 4.35 1.1 6.93-.04 1.7-.75 2.25 1.41.98 3.87-1.31 2.53-1.32 2.84-.1 2.84 5.78 0 2.59-12.29-5.05-19.4-8.68-8.08-28.32-9.81-30.58-2.7-1.15 3.65-4.4-1.52-5.64-8.97-.44-2.65-.28-3.05 2.35-5.62l2.82-2.75 1.08 2.04 1.08 2.05-.12-2.4c-.28-5.62 2.45-5.13 6.92 1.24 4.69 6.7 5.82 7.68 3.81 3.32-.8-1.74-1.77-2.97-2.16-2.73-.38.24-.48.08-.22-.34.26-.43.09-2.24-.4-4.04-.6-2.28-.64-3.48-.11-4.01.71-.72 11.1-4.5 11.25-4.1 1.11 2.94 5.52 10.34 7 11.77 2.45 2.34 2.56 1.8.3-1.5-.92-1.38-2.57-5.97-3.65-10.21-2.17-8.52-3.29-15.47-1.42-8.84.6 2.13 1.44 4.29 1.85 4.79.42.5.52 1.33.23 1.84-.3.5-.28.7.03.4.31-.27 2.48 2.36 4.8 5.87 4.23 6.33 12.96 15.39 14.14 14.66.34-.22.83-.06 1.07.34.25.4.68.72.96.72.28 0-1.43-2.02-3.8-4.5-4.14-4.35-7.53-9.64-8.55-13.35-.27-.99.5-.11 1.7 1.93 4.75 8.06 15.22 16.14 21.84 16.87 2.91.32 3.28.25 1.97-.38-.89-.43-1.61-1.07-1.61-1.42 0-.63 2.91.64 3.57 1.57.56.8 10 2.71 10 2.03 0-.33-.46-.6-1.03-.6a2 2 0 0 1-1.54-.83c-.36-.6.14-.7 1.78-.37 1.43.29 2.13.2 1.86-.24-.24-.4-1.02-.7-1.74-.7-1.62 0-5.9-4.67-7.93-8.64l-1.52-2.98 2.17-4.73c4.8-10.4 6.8-26.83 5.18-42.53-1-9.84-.6-10.42.98-1.35.67 3.85 1.83 10.03 2.58 13.73 1.83 9.06 1.83 14.35.01 14.35-1.49 0-3.2 1.65-2.46 2.39.26.26 1.23.47 2.16.47 1.62 0 1.68.16 1.27 3.75-.75 6.56-1.75 13.2-2.19 14.57-.36 1.1-.3 1.14.36.25.98-1.33 3.3-9 4.36-14.47.89-4.55 5.7-6.67 5.7-2.5-.01 2.22-2.6 12.83-3.89 15.92-.58 1.39-.74 2.34-.36 2.1 1.5-.93 4.42-7.92 5.62-13.46l1.26-5.8 10.65.13c16.5.2 15.79-.04 21.5 7.05 5.68 7.05 10.8 11.1 16.83 13.3l4.32 1.57-.44 12.54c-.75 21.44-5.55 36.33-16.82 52.19-1.81 2.55-3.3 4.84-3.3 5.07-.01.71-5.15 5.62-5.5 5.27-.19-.19-1.1.47-2.01 1.45-2.9 3.07-.48 1.95 4.32-2.02 6.07-5.01 14.05-16.48 20.6-29.6 2.8-5.59 5.18-10.17 5.3-10.17.34 0-.2 9.14-1.02 17.47l-.78 7.83-4.33 5.39a209.4 209.4 0 0 1-8.67 10.02l-4.35 4.65 4.64-4.39c4.41-4.16 7.86-6.6 7.86-5.54 0 .27-.56.95-1.25 1.51-1.18.98-1.18 1.01.07.61s1.3.09 1.06 8.7l-.26 9.1-3.77 8.13c-10.07 21.74-27.43 33.42-35.7 24.02-4.17-4.73-6.24-3.94-2.83 1.08 6.15 9.04 19.37 7.25 31.47-4.25l5.59-5.32-1.89 4.96c-7.07 18.56-7.14 18.67-14.25 20.93l-5.7 1.8 2.19.9c1.9.77 3.43.57 12.12-1.56 11.43-2.82 10.49-2.65 9.99-1.84-1.58 2.56 13.91 1.18 19.68-1.75 4.1-2.08 6.17-1.61 5.7 1.3-.04.3.17.45.47.36.3-.1 1.35.58 2.32 1.51.98.93 2.65 2.24 3.73 2.91l1.95 1.22-3.03 1.68c-13.84 7.7-32.25 24.77-46.48 43.1-5.4 6.94-8 9.76-8.75 9.47-.64-.24-.89-.1-.62.33.25.4-2.14 5.02-5.32 10.25-3.18 5.24-5.78 9.72-5.78 9.97s13.05.45 28.99.45h28.99l10.4-8.63c15.81-13.12 40.12-31.5 40.97-30.97 1.05.64-12.82 13.58-22.12 20.64-5.66 4.3-12.89 10.3-16.07 13.35l-5.8 5.55 2.73.03c2.4.03 3.47-.63 9.1-5.6a480.9 480.9 0 0 1 18.35-14.93c6.58-5.1 12.6-10 13.4-10.88 2.44-2.73 11.62-9.99 12.62-9.98 2.96.04 2.66 1.3-.98 4.07-2.09 1.58-6.2 5.04-9.15 7.7-2.94 2.65-8.05 6.8-11.34 9.2-8.87 6.49-24.37 19.1-24.37 19.82 0 .34 3.13.62 6.96.6l6.97-.02 9.64-7.56c17-13.31 33.82-24.88 41.37-28.46l4.52-2.13 2.36 2.74c1.33 1.53 2.2 3.19 1.97 3.77-.24.63-.02.95.58.83.56-.12.94.32.89 1.03-.06.68.16 1.08.47.9 1.28-.8 6.37 10.07 5.94 12.68-.24 1.53-.08 2.7.42 3 .58.36.69-.02.38-1.25-.54-2.14.73-3.18 1.72-1.41 1.14 2.05 1.69.55.87-2.42-.43-1.5-.77-3.6-.77-4.65-.02-9.13-6.9-18.05-16.43-21.32-3.74-1.28-7.85-2.92-9.15-3.66-1.3-.73-2.75-1.33-3.23-1.33-4.09 0-28.27-14.49-39.26-23.52-6.25-5.14-7.28-5.4-15.86-3.96-6.74 1.13-10.19-.53-14.2-6.87l-1.18-1.86 4.11-2.52c2.27-1.38 5.25-3.08 6.62-3.78 1.38-.69 4.35-2.65 6.61-4.37 3.07-2.32 5.26-3.34 8.67-4.04 6.03-1.24 11.97-4.92 15.5-9.61 1.57-2.06 3.23-3.75 3.71-3.74 7.03.09-2.71 13.44-12.31 16.88-2.17.77-2.28.9-.75.93 5.6.07 13.9-7.05 18.42-15.8a41.4 41.4 0 0 1 6.67-8.8c6.3-6.21 11.91-18.23 13.16-28.14 1.77-13.99 2.17-27.05 1.03-33.93-.4-2.4-1.7-11.44-2.89-20.08a589.3 589.3 0 0 0-3.9-24.64c-.96-4.91-2.4-13.75-3.2-19.65-2.49-18.17-5.17-30.07-11.21-49.8-.21-.7-.72-1.04-1.13-.8-.43.27-.53.12-.23-.35.6-1-5.3-15.8-7.74-19.37-2-2.92-3.72-6.7-4.29-9.43-1.3-6.22-26.32-32.62-36.76-38.8-.68-.4-.84-.33-.5.23.29.46.1.83-.42.84-.7 0-.66.18.12.67.69.44 1.23.38 1.6-.19.3-.47.57-.7.6-.5.94 4.78.73 5.08-1.83 2.68-2.86-2.67-3.57-3.15-4.67-3.15-1.69 0-7.11-3.73-7.11-4.9 0-.58-.33-1.05-.72-1.05-.4 0-.71.32-.71.72 0 .4-1.2-.01-2.68-.91a48.84 48.84 0 0 0-4.47-2.42c-.98-.43-3.23-1.47-5-2.3-7.58-3.57-22.7-7.87-29.28-8.33-15.9-1.1-17.35-1.06-22.72.7m8.43 4.71c-4.3.77-15.27.74-12.85-.03.98-.32 5-.57 8.92-.55 5.82.01 6.55.12 3.93.59m-48.34 4.48c-3.66 1.35-3.53 1.9.18.79 1.87-.57 3.56-1.19 3.76-1.38.61-.62-1.57-.29-3.94.59m127.24 18.99c1.55 1.6 2.57 2.92 2.27 2.92-.8 0-9.02-7.35-9.02-8.07 0-.88 3.5 1.79 6.75 5.15m9.9 10.77c-.43.42-4.28-3.98-5.33-6.07-.4-.78.72.18 2.48 2.15 1.76 1.96 3.04 3.73 2.84 3.92m-184.82 7.23c-3.93 4.24-9.68 11.6-9.68 12.39 0 1.18 1.51.06 2.87-2.14a27.35 27.35 0 0 1 2.4-3.39c1.59-1.63 9.08-11.23 8.77-11.23-.18 0-2.14 1.97-4.36 4.37M290.8 68.4c.35.92.96 1.48 1.35 1.23 3.46-2.14-2.45 5.7-8.13 10.78-3.2 2.87-4.72 4.75-4.72 5.85 0 1.97-1.75 2.8-3.25 1.56-.9-.74-1.38-.62-2.79.7-2.85 2.68-6.57-.14-5.13-3.89.49-1.28 3.39-1.42 4.6-.21.66.66.85.58.85-.4 0-.74.86-1.55 2.14-2 1.18-.4 2.16-1.11 2.18-1.56.02-.46 1.82-2.27 4-4.04 4.43-3.6 5.97-6.01 5.97-9.34 0-2.61 1.73-1.84 2.93 1.32m15.74 5.74c1.2 2.08 2.06 3.93 1.88 4.1-.17.17-1.96-2.5-3.99-5.93-2.02-3.44-2.87-5.28-1.88-4.1a52.47 52.47 0 0 1 3.99 5.93M248 79.11c2.9 3.08 7.52 10.66 9.13 14.99 1.65 4.4 1.47 5.58-.4 2.72-2.32-3.54-8.64-2.44-11.87 2.07-2.27 3.16-6.87-5.7-5.5-10.62.87-3.16 1.45-3.5 4.55-2.65 3.03.84 3.34-.32 1.1-4-2.52-4.13-.3-6 2.99-2.51m-128.72 9.76c0 .13-.5 1.4-1.09 2.83-1.06 2.55-1.05 2.59.63 2.59 2.88 0 3.75 1.77 2.33 4.75-1.2 2.54-1.66 2.66-4.8 1.36-.84-.34-1.4.13-2.06 1.7-1.5 3.61-5.42 2.44-4.31-1.28 2.56-8.62 5.87-14.03 7.92-12.94.76.4 1.38.85 1.38.99m23.79.84-.36 5.18c-.28 3.85 1.98 5.1 9.45 5.23 5.48.1 6.4-.27 6.4-2.6 0-2.43.72-3.95 1.86-3.95.73 0 1 1.03 1 3.81 0 4.65.48 5.23 2.62 3.22.91-.86 1.87-1.34 2.13-1.08.26.26.87.14 1.36-.27.64-.53 1.29-.22 2.35 1.13 1.83 2.32 4.64 2.2 4.98-.2.26-1.85 1.91-2.16 2.55-.48.24.62.44 3.69.44 6.8v5.68l-2.68-.32a93.18 93.18 0 0 0-3.52-.38c-.45-.03-1.52-1.18-2.37-2.55-1.71-2.77-2.7-3.14-3.3-1.25-1.42 4.38-1.93 5.25-2.58 4.33-.42-.6-.5.83-.23 3.88.56 6.21.14 6.1-1.4-.35-1.58-6.56-1.87-6.84-4.24-4.03-1.74 2.07-2.46 2.36-7.06 2.82a49.7 49.7 0 0 0-6.73 1.03c-1.38.45-1.77.14-2.73-2.16-2-4.8-4.6 2.7-4.6 13.28 0 1.62-.33 2.8-.8 2.8-.6 0-.66-1.72-.26-6.24.31-3.44.64-9.07.75-12.51.24-8.43 3.07-21.63 4.89-22.84 1.38-.92 2.22-.11 2.08 2.02m85.13 1.36c0 1.66-.35 2.2-1.56 2.37-2.04.29-3.6-2.32-2.3-3.88 1.54-1.84 3.86-.94 3.86 1.51m83.15 5.72c0 .78-.58-.18-1.3-2.15-2.2-5.93-2.3-6.6-.47-2.85.96 1.96 1.76 4.21 1.77 5m9.28 10.42c3.04 9.39 6.16 21.94 5.59 22.51-.19.2-1.04-2.32-1.9-5.58-2.83-10.85-6.57-22.78-8.67-27.73-1.15-2.7-2.07-5.16-2.05-5.48.1-1.69 4.54 8.59 7.03 16.28M234.8 95.4c.9 1.89 1.01 2.84.44 3.75-1.68 2.66-5.45 1.23-6.13-2.34-.86-4.45 3.7-5.59 5.69-1.41m-142.86.9c-1 1.21-1.6-.02-.9-1.84.38-1.02.56-1.04 1.09-.18.4.64.32 1.4-.19 2.02m119.04 2.12c1.36 2.63.36 4.44-2.47 4.44-1.86 0-4.66-3.04-3.46-3.76a95.8 95.8 0 0 1 4.74-2.65c.1-.01.63.87 1.19 1.97m-18.85.53c0 .65.43.84 1.2.55.91-.36 1.08-.17.72.77-.27.71-.18 1.05.21.81.38-.23 1.85 1.9 3.29 4.75a120.2 120.2 0 0 0 4.21 7.72c.89 1.4 3.87 6.74 6.64 11.86a293.52 293.52 0 0 0 9.8 16.68c5.04 7.76 8.93 14.18 8.93 14.73 0 .74-7.39.12-16.07-1.37l-9.28-1.59-.46-8.9c-.54-10.48-1.6-15.77-6.76-33.68-4.21-14.6-4.17-14.42-3.14-13.78.4.24.71.9.71 1.45m-6.1.97c2.7 5.23.65 12.77-2.45 9.03-1.56-1.88-2.2-9.18-.89-10.2 1.66-1.3 2.14-1.13 3.33 1.17m-23.7 7.22c0 1.77.15 2.5.32 1.61.17-.88.17-2.33 0-3.21-.17-.89-.31-.17-.31 1.6m-30.47 3.4c-1.23 5.34-2.5 8.99-2.53 7.32-.04-1.55.78-5.46 1.75-8.4.58-1.74 1.22-.85.78 1.08m-53.7 2.1c-.69 1.89-1.7 4.53-2.22 5.86-.53 1.34-.84 2.56-.68 2.72.16.16 1.3-2.35 2.53-5.57 1.23-3.22 2.1-5.99 1.94-6.15-.17-.17-.87 1.25-1.57 3.14m117.1 10.26c3.3 11.78 4.02 16.09 4.02 23.94v6.57l-2.58.49c-3.35.62-3.22.97-2.47-6.98.76-8.06-.23-21.24-2.5-33.35-.8-4.3 1.19.97 3.53 9.33m-62.76 9.06c.02 14.7.93 22.9 3.2 28.92l1.29 3.39-2.97.76c-1.63.41-3.9 1.06-5.06 1.44-1.2.4-2.36.43-2.72.06-1.08-1.07.74-23.38 2.62-32.24a716.58 716.58 0 0 1 3.6-16.43c.02 0 .04 6.34.04 14.1m-58.47-8.24c-.58 2.22-.14 2.33.83.21.45-.98.54-1.79.2-1.79s-.8.71-1.03 1.58m145.85 10.47c3.87 4.66 7.5 11.03 10.2 17.87.36.94.83 1.55 1.03 1.35.2-.2-.3-2.06-1.12-4.12-2.08-5.28-1.39-5.15 2.54.48 1.87 2.68 4.28 6.02 5.37 7.43l1.97 2.56-3.33-1.06c-1.84-.58-3.74-1.38-4.23-1.75-1.12-.88-1.18-2.21-.07-1.52.52.31.63.2.31-.33-.28-.46-.77-.68-1.07-.5-1.43.9-11.95-14.26-15.8-22.76-2.16-4.76-2.71-6.84-1.18-4.43.46.73 2.89 3.79 5.38 6.78m-41.01 12.95c-.24 3.34-.88 8-1.43 10.36-1.09 4.69-.94-9.72.22-21.43l.5-5 .57 5c.3 2.75.37 7.73.14 11.07m149.7-6.5c.43 2.99 1.86 11.22 3.18 18.29a539.96 539.96 0 0 1 6.14 42.14c.44 4.32 1.24 10.28 1.8 13.23 3.33 17.94 1.05 38.45-5.96 53.56-2.02 4.36-7.31 12.46-7.31 11.2 0-1.98 1.92-7.66 3.31-9.77 4.75-7.23 6.73-21.89 5.31-39.25-.46-5.72-1.13-21.49-1.49-35.04-.56-21.84-.84-25.7-2.45-33.93-2.16-11.02-4.7-26.87-4.62-28.7.1-2.12 1.24 2.4 2.08 8.28m-257.4-4.16c-.25 1.24-.42 3.1-.37 4.13.04 1.04.37.14.72-1.98.69-4.14.4-5.9-.35-2.15m-.85 10.03c.35 2.26.27 2.83-.27 2.05-.91-1.31-.96 3.65-.09 8.57.55 3.09.58 3 .78-2.14a436 436 0 0 1 .38-8.04c.09-1.47-.16-2.88-.56-3.12-.47-.3-.55.64-.24 2.68m258.25 17.4c.06 2.37.53 7.03 1.05 10.37l.95 6.07-.38-6.79c-.44-8.17 1.17-8.32 2.03-.18.72 6.92.64 28.2-.1 23.04-.3-2.16-.58-6.58-.62-9.82-.04-3.24-.31-5.9-.6-5.9-.73 0-.4 8.01.88 21.43 3.24 34.1 2.76 53.37-1.53 61.64-1.6 3.06-2.08 1.29-.7-2.53.61-1.67 1.43-5.45 1.8-8.4 1.81-13.85 1.71-18.4-1.26-57.14-.8-10.4-1.8-23.59-2.2-29.28-.42-5.7-.9-12.13-1.08-14.29-.25-2.96-.09-2.52.66 1.79a84.65 84.65 0 0 1 1.1 10M68.75 158.2c0 1.58.16 2.13.33 1.25.17-.9.16-2.18-.02-2.86-.18-.68-.32.04-.3 1.61m45.86 11.34 1.26 5.62-2.05 1.68c-2.96 2.42-3.12 2.25-3.12-3.41 0-6.63 1.53-14.6 2.2-11.55l1.72 7.66m122.9-8.56c0 .05 3.34 3.7 7.4 8.12 7.6 8.27 8.05 9.91 1.72 6.2-3.04-1.78-9.27-8.66-11.89-13.13l-1.3-2.24 2.02.49c1.11.27 2.03.52 2.04.56m-117.24 8.88c.35.57.06 1.5-.74 2.39l-1.31 1.45-.47-1.68c-.26-.92-.48-3.92-.5-6.67l-.02-5 1.23 4.3a36.18 36.18 0 0 0 1.8 5.21m209.94-6.06c.2.53.09 1.41-.26 1.97-.47.73-.64.47-.65-.96-.01-2.13.33-2.52.91-1m-261.44 4.75c-.06.79.2 1.43.56 1.43.37 0 .67.34.67.76 0 .41-.32.55-.71.31-.41-.25-.72.37-.72 1.43 0 1.24.28 1.7.83 1.36.6-.38.7.47.4 3.15-.25 2.06-.14 3.85.24 4.08.4.26.67-2.01.67-5.7 0-3.46-.3-6.1-.69-6.1-.38 0-.5-.49-.28-1.08.23-.59.13-1.07-.23-1.07-.35 0-.68.65-.74 1.43m138.12 6.11c-3.35 1.23-7.81 3.92-7.32 4.41.2.2 1.2-.3 2.22-1.1 1.02-.81 3.45-2 5.4-2.65 1.94-.64 3.52-1.3 3.52-1.47 0-.46-.83-.28-3.82.81m13.2 3.3c-7.53 1.4-11.64 3.16-15.2 6.5-1.35 1.27-2.14 2.06-1.75 1.77 1.89-1.41 1.95-.26.07 1.3-1.47 1.23-1.7 1.63-.71 1.28l1.43-.5-1.43 1.73c-.79.95-1.62 1.89-1.86 2.08-.92.78-.33 2.55.86 2.55.69 0 1.12-.21.96-.48-.17-.26.18-.87.76-1.36.59-.48 1.07-.74 1.07-.56 0 .18 1.45-1.07 3.22-2.77 3.76-3.6 4.93-3.94 3.83-1.13-2.01 5.15.41 14.73 4.72 18.65 2.45 2.23 3.72 2.9 2.87 1.53-.26-.42.66-.74 2.28-.78l2.72-.07-2.68-1.1c-1.72-.7-2.68-1.57-2.68-2.4 0-.75-.39-1.18-.9-1-1.53.54-4.77-2.88-4.32-4.57.46-1.77 1.16-1.9 2.59-.47.9.91 1.09.78 1.47-1.1.38-1.91.58-2.06 1.91-1.35 1.1.59 1.74.59 2.45 0 .76-.63 1.06-.34 1.44 1.38.48 2.19.94 2.47 3.58 2.19.78-.09 1.19.09.9.38-.29.3-.03.9.57 1.34.61.44 1.2 1.44 1.3 2.21.13.81.87 1.51 1.75 1.64 2.08.3 1.96 1.44-.24 2.27-2.22.85-2.37 1.7-.18 1.04 4-1.2 8.08-7.12 8.87-12.84.24-1.78.7-3.4 1.02-3.6.52-.32.76.57 1.6 6.12.2 1.19.34.83.45-1.07.15-2.54.23-2.66.74-1.08.56 1.76.57 1.76.65-.33a5.47 5.47 0 0 1 1.7-3.57c3.95-3.54 4.54-6.71 1.26-6.86-.8-.04-.74-.2.26-.58 1.62-.64-.85-2.38-7.26-5.1-2.06-.87-3.75-1.79-3.75-2.04-.01-.9-9.87-.44-16.34.76m66.34 7.01c0 4.08-.26 5.72-.9 5.74-.53 0-.42.29.28.7.94.55 1.18 2.03 1.25 7.65.06 3.84.29 8.32.52 9.95.38 2.68.13 3.35-2.47 6.79-4.44 5.85-5.22 6.65-8.72 9a27.44 27.44 0 0 0-4.2 3.32c-1.36 1.64-2.42 1.4-1.98-.47l1.55-6.6c1.2-5.1 2.94-16.29 3.82-24.65.54-5.1 2.29-6.55 3-2.5.36 2.1.4 2.05 1.93-1.63.87-2.08 1.22-3.56.8-3.3-.46.29-.64.08-.43-.5.19-.55.88-.95 1.54-.9.99.09 1.04-.08.31-.97-.85-1.02-4.14 1.78-4.16 3.55 0 .3-.48.53-1.07.53-.79 0-1.07-.82-1.07-3.13 0-3.87 4.19-8.3 7.86-8.3h2.14V185m-172.78 10.82c1.08 1.52 1.25 2.32.7 3.35-.4.75-.5 1.61-.22 1.92.28.31.15.36-.3.1-.78-.44-1.98 1.96-1.71 3.45.08.48-.1.48-.58 0-1.42-1.45-2.97-8.62-2.91-13.52l.06-5.05 1.77 3.88c.97 2.13 2.4 4.77 3.19 5.87m-32.73 5.06c.18 1.86.05 3.2-.3 3-.34-.22-.6-2.06-.56-4.1.06-4.23.39-3.82.86 1.1m136 .3c-.76.75.2 1.64 1.32 1.21.68-.26 1.06.07 1.1.93.04.79.2.95.43.4.63-1.58-1.7-3.69-2.85-2.55m-80.58 6.5c-.04.3-.04.8.01 1.1.05.32-.75 1.3-1.78 2.18l-1.87 1.61 1.93 2.3c1.06 1.25 2.27 2.07 2.69 1.82.44-.27.55-.14.27.32-1.59 2.57 8.07 3.96 10.58 1.53.37-.37-.36-.35-1.7.03-1.54.44-2.84.43-3.72-.05-.74-.4-1.64-.54-2-.32-.36.22-.88.03-1.17-.43-.35-.57-.2-.65.49-.25.64.38.58.1-.2-.78a9.5 9.5 0 0 1-1.67-3.31c-.27-1.07-.7-1.92-.95-1.88-1.35.17-1.52-.23-.51-1.23 1.25-1.26 1.5-3.17.4-3.17-.39 0-.75.24-.8.54m84.73 1.64c-.96.44-.26.51 2.14.22 1.97-.24 3.71-.56 3.87-.7.63-.56-4.65-.14-6 .48m-142 11.2c-.16 1.1-.3.37-.3-1.6-.01-1.96.13-2.84.3-1.97.16.88.17 2.49 0 3.58m60.6 1.56c-.23.37-.04.9.42 1.19.56.34.64.2.25-.43-.41-.67-.27-.83.49-.54.6.23 1.53.13 2.08-.22.74-.47.5-.64-.91-.65-1.06 0-2.11.29-2.34.65m-17.88 6.48c.6 1.18 1.27 2.14 1.46 2.14.2 0-.14-.96-.75-2.14-.6-1.18-1.27-2.14-1.47-2.14-.2 0 .15.96.76 2.14m-48.22 31.79c0 2.68.14 4.74.32 4.56.53-.53.67-8.45.16-8.97-.26-.26-.48 1.72-.48 4.4m99.29.97c0 1.5 2.77 2.96 5.41 2.86 2.15-.08 2.34-.18.84-.4-2.9-.44-2.4-1.63.71-1.69 2.15-.04 2.4-.17 1.25-.66-1.87-.8-8.21-.89-8.21-.11m11.19 1.94c.37.97.14 1.1-1.26.72-1.19-.33-1.39-.28-.65.17 1.5.92 5.72 1.64 5.72.99 0-.3-.96-1.11-2.14-1.8-1.94-1.15-2.09-1.16-1.67-.08m-109.56 5.67c0 1.96.14 2.68.3 1.6.17-1.09.17-2.7 0-3.58-.17-.87-.3.01-.3 1.98m4.53 5.74c-.25.64-.4 2.18-.36 3.42.08 1.89.18 1.73.62-.95.57-3.41.47-4.38-.26-2.47m244.53 4.3c-1.33 3.5-2.18 4.6-3.57 4.6-2.03 0-1.74-1.38.87-4.07 2.75-2.83 3.65-3 2.7-.52m-63.9 1.03c.25.4.75.54 1.11.32 1.51-.94.43 7.27-1.27 9.62-.75 1.04-2.3-3.02-2.32-6.08-.03-4.23 1.13-6.04 2.48-3.86m-3.65 7.9 1.86 5.77-2.66 3.34c-4.5 5.63-14.52 16.48-16.63 17.98-1.87 1.33-1.74.9 2.1-6.97 2.24-4.61 4.68-10.32 5.42-12.67.74-2.36 2.2-5.25 3.24-6.43a32.29 32.29 0 0 0 3.22-4.47c1.66-2.9 1.28-3.28 3.45 3.45m-56.74 1.56c-1.36 1.28-2.63 2.22-2.83 2.08-.37-.26 4.29-4.4 4.95-4.4.2 0-.76 1.04-2.12 2.32M94.65 296c.63 3.07.98 5.76.77 5.97-.49.49-.8-.56-1.78-5.83-1.54-8.34-.71-8.46 1-.14M305 294.36c-2.5 1.97-5.96 3.78-5.35 2.8.81-1.32 6.26-5.07 6.71-4.62.23.23-.38 1.05-1.36 1.82m-222.6 6.53c.57 2.14-.15 1.38-1.7-1.78-1.44-2.94-1.44-2.98-.05-1.25.78.98 1.57 2.34 1.75 3.03m194.04 3.31c0 .6-5.4 5.8-6.02 5.8-2.57 0-2.2-1.14 1.19-3.59 3.93-2.84 4.83-3.25 4.83-2.2m1.78 1.5c-.71.8-1.48 1.25-1.72 1.02-.23-.23.2-.87.97-1.43 1.96-1.43 2.27-1.26.75.42m-10.57 6.13c.36 1.09-11.24 5.46-13.7 5.17-1.7-.2-.94-.72 4.7-3.26 6.69-3 8.5-3.4 9-1.9m-121.1 8.25c.32 2.8-.92 3.43-6.72 3.45-2.14.01-2.64 1.03-.83 1.72 5.65 2.17 11.88-2 8.78-5.88l-1.51-1.9.29 2.61m15.95 16.39c-6.42 4.22-35.76 18.4-40.55 19.6-5.53 1.38-2.97 26.08 3.96 38.19l3.06 5.35 6.8.2 6.8.2 3.99-4.12c13.11-13.56 22.68-22 26.7-23.54 3.47-1.33.84 3.91-3.96 7.91-2.74 2.29-7.13 6.6-9.76 9.61-2.62 3-5.28 5.94-5.9 6.54-3.64 3.46-3.55 3.56 2.99 3.56h6.09l2.72-5.8c2.3-4.9 2.81-5.57 3.35-4.36a4.63 4.63 0 0 0 7.9 1.06l1.52-1.95.36 5.35.36 5.34 4.89.22 4.89.2-.47-3.06a265.38 265.38 0 0 0-3.13-15.21c-.59-2.45-2.9-3.23-4.37-1.47-1.32 1.6-3.1 1.37-4.99-.64l-1.64-1.75 1.38-2.35c1.7-2.94 3.98-4.13 7.9-4.14l3.04-.01v4.2c0 4.86 1 7.57 5.7 15.44 1.88 3.14 3.63 6.44 3.9 7.32.45 1.46.94 1.61 5.15 1.61h4.65l-.49-2.32c-.6-2.85-7.31-15.92-10.9-21.23-2.22-3.27-3.49-4.37-7.18-6.21-1.45-.73 6.98-13.73 9.17-14.14 4.02-.76 13.9-5.14 14.13-6.26 1.14-5.63-2.24-5.73-8.67-.26-2.97 2.52-7 5.46-8.98 6.53-1.98 1.08-3.78 2.55-4.01 3.28-.48 1.5-2.47 1.75-3.74.49-1.36-1.37-4.2.4-6.53 4.08-1.83 2.88-2.13 3.1-2.54 1.8-1.93-6.08-28.97 16.5-35.66 29.78-1.03 2.06-2.04 3.75-2.23 3.75-1.72 0 2.27-7.53 7.61-14.38 3-3.83 6.88-10.96 8.04-14.77 1.21-3.95 6.06-15.2 9.05-21 1.16-2.25 2.1-4.52 2.1-5.05 0-.53.64-2.3 1.43-3.92 3.16-6.55 2.05-7.6-3.93-3.67m10.12 8.66c-3.53.94-3.83 1.93-1.63 5.43 2.28 3.6 6.4 6.8 9.03 6.98 1.11.07 2.37.36 2.8.62 1.08.67.38-3.17-1.47-8.18-2.28-6.13-2.8-6.42-8.73-4.85m170.97 10.26c-1.36.59-3 1.54-3.64 2.12-1 .91-1.48.92-3.51.06l-2.36-.99 3.14-1.1a22.44 22.44 0 0 1 6-1.14l2.85-.03-2.48 1.08m-227.85 3.37c-4.14 2.07-2.79 27.38 1.84 34.45.68 1.04 1.78 2.9 2.45 4.15.95 1.78 1.73 2.3 3.73 2.47l2.52.22-3-5.97c-3.94-7.86-4.85-12.34-5.12-25.08-.25-11.97-.12-11.4-2.42-10.24m-8.06 2.8c-3.2.67-3.4.84-3.4 2.99 0 1.25-.4 2.71-.89 3.24-.71.77-.71.86 0 .46.69-.39.9 1.03.91 6.14.03 9.25.6 13.63 2.6 20.04l1.73 5.54h4.34c3.2 0 4.22-.23 3.93-.9-4.58-10.4-5.65-15.83-5.76-29.28l-.07-9.02c0 .05-1.52.4-3.4.79m-6.03 26.27c0 2.16.14 3.04.3 1.96.16-1.08.16-2.85 0-3.93s-.3-.2-.3 1.97" fill="#fff"/></svg>